<svg width="16" height="17" viewBox="0 0 16 17" fill="none" xmlns="http://www.w3.org/2000/svg">
<path fill-rule="evenodd" clip-rule="evenodd" d="M9.66462 2.9487C8.77555 2.18377 7.46081 2.18377 6.57174 2.9487C6.18771 3.27912 5.70794 3.47784 5.20275 3.51576C4.03319 3.60353 3.10353 4.53319 3.01576 5.70275C2.97784 6.20794 2.77912 6.68771 2.4487 7.07174C1.68377 7.96081 1.68377 9.27555 2.4487 10.1646C2.77912 10.5486 2.97784 11.0284 3.01576 11.5336C3.10353 12.7032 4.03319 13.6328 5.20275 13.7206C5.70794 13.7585 6.18771 13.9572 6.57174 14.2877C7.46081 15.0526 8.77555 15.0526 9.66462 14.2877C10.0486 13.9572 10.5284 13.7585 11.0336 13.7206C12.2032 13.6328 13.1328 12.7032 13.2206 11.5336C13.2585 11.0284 13.4572 10.5486 13.7877 10.1646C14.5526 9.27555 14.5526 7.96081 13.7877 7.07174C13.4572 6.68771 13.2585 6.20794 13.2206 5.70275C13.1328 4.53319 12.2032 3.60353 11.0336 3.51576C10.5284 3.47784 10.0486 3.27912 9.66462 2.9487ZM11.231 7.30719C11.4734 7.03779 11.4516 6.62285 11.1822 6.3804C10.9128 6.13794 10.4979 6.15978 10.2554 6.42918L7.52801 9.45962L5.91332 8.11404C5.63488 7.88201 5.22108 7.91963 4.98905 8.19806C4.75702 8.47649 4.79464 8.8903 5.07307 9.12233L7.04366 10.7645C7.38688 11.0505 7.8948 11.0141 8.19368 10.682L11.231 7.30719Z" fill="#F8FAFC"/>
</svg>
