<svg width="20" height="20" viewBox="0 0 20 20" fill="none" xmlns="http://www.w3.org/2000/svg">
<path d="M11.8753 20H8.12534C7.87534 20 7.65867 19.9167 7.47534 19.75C7.292 19.5833 7.18367 19.375 7.15034 19.125L6.85034 16.8C6.63367 16.7167 6.42967 16.6167 6.23834 16.5C6.04634 16.3833 5.85867 16.2583 5.67534 16.125L3.50034 17.025C3.267 17.1083 3.03367 17.1167 2.80034 17.05C2.567 16.9833 2.38367 16.8417 2.25034 16.625L0.400337 13.4C0.267004 13.1833 0.225337 12.95 0.275337 12.7C0.325337 12.45 0.450337 12.25 0.650337 12.1L2.52534 10.675C2.50867 10.5583 2.50034 10.4457 2.50034 10.337V9.662C2.50034 9.554 2.50867 9.44167 2.52534 9.325L0.650337 7.9C0.450337 7.75 0.325337 7.55 0.275337 7.3C0.225337 7.05 0.267004 6.81667 0.400337 6.6L2.25034 3.375C2.367 3.14167 2.546 2.99567 2.78734 2.937C3.02934 2.879 3.267 2.89167 3.50034 2.975L5.67534 3.875C5.85867 3.74167 6.05034 3.61667 6.25034 3.5C6.45034 3.38333 6.65034 3.28333 6.85034 3.2L7.15034 0.875C7.18367 0.625 7.292 0.416667 7.47534 0.25C7.65867 0.0833333 7.87534 0 8.12534 0H11.8753C12.1253 0 12.342 0.0833333 12.5253 0.25C12.7087 0.416667 12.817 0.625 12.8503 0.875L13.1503 3.2C13.367 3.28333 13.5713 3.38333 13.7633 3.5C13.9547 3.61667 14.142 3.74167 14.3253 3.875L16.5003 2.975C16.7337 2.89167 16.967 2.88333 17.2003 2.95C17.4337 3.01667 17.617 3.15833 17.7503 3.375L19.6003 6.6C19.7337 6.81667 19.7753 7.05 19.7253 7.3C19.6753 7.55 19.5503 7.75 19.3503 7.9L17.4753 9.325C17.492 9.44167 17.5003 9.554 17.5003 9.662V10.337C17.5003 10.4457 17.4837 10.5583 17.4503 10.675L19.3253 12.1C19.5253 12.25 19.6503 12.45 19.7003 12.7C19.7503 12.95 19.7087 13.1833 19.5753 13.4L17.7253 16.6C17.592 16.8167 17.4047 16.9627 17.1633 17.038C16.9213 17.1127 16.6837 17.1083 16.4503 17.025L14.3253 16.125C14.142 16.2583 13.9503 16.3833 13.7503 16.5C13.5503 16.6167 13.3503 16.7167 13.1503 16.8L12.8503 19.125C12.817 19.375 12.7087 19.5833 12.5253 19.75C12.342 19.9167 12.1253 20 11.8753 20ZM10.0503 13.5C11.017 13.5 11.842 13.1583 12.5253 12.475C13.2087 11.7917 13.5503 10.9667 13.5503 10C13.5503 9.03333 13.2087 8.20833 12.5253 7.525C11.842 6.84167 11.017 6.5 10.0503 6.5C9.067 6.5 8.23767 6.84167 7.56234 7.525C6.88767 8.20833 6.55034 9.03333 6.55034 10C6.55034 10.9667 6.88767 11.7917 7.56234 12.475C8.23767 13.1583 9.067 13.5 10.0503 13.5Z" fill="#666666"/>
</svg>
